PathFileType	4	(X/Y/Z)	E:\Qualisys_Data\Carbon_Farble_Plate\Data\Amateur_Runner\S2\T3\S2T3V11_c3d.trc
DataRate	CameraRate	NumFrames	NumMarkers	Units	OrigDataRate	OrigDataStartFrame	OrigNumFrames
200.000000	200.000000	4	39	mm	200.000000	121	324
Frame#	Time	LSHO			RSHO			LICST			RICST			LASIS			LHEEL			RASIS			LTROC			RTROC			SACR			LTH1			LSK4			LTH2			LTH3			RHM5			LSK2			LTH4			RTH1			LTOE			RTH2			RTH3			RTH4			LLEP			RLEP			LSK1			LSK3			RSK1			LHM5			RSK2			LFT1			RSK3			RSK4			LLME			RLME			RTOE			RHEEL			RFT1			RFT2			LFT2			
		X1	Y1	Z1	X2	Y2	Z2	X3	Y3	Z3	X4	Y4	Z4	X5	Y5	Z5	X6	Y6	Z6	X7	Y7	Z7	X8	Y8	Z8	X9	Y9	Z9	X10	Y10	Z10	X11	Y11	Z11	X12	Y12	Z12	X13	Y13	Z13	X14	Y14	Z14	X15	Y15	Z15	X16	Y16	Z16	X17	Y17	Z17	X18	Y18	Z18	X19	Y19	Z19	X20	Y20	Z20	X21	Y21	Z21	X22	Y22	Z22	X23	Y23	Z23	X24	Y24	Z24	X25	Y25	Z25	X26	Y26	Z26	X27	Y27	Z27	X28	Y28	Z28	X29	Y29	Z29	X30	Y30	Z30	X31	Y31	Z31	X32	Y32	Z32	X33	Y33	Z33	X34	Y34	Z34	X35	Y35	Z35	X36	Y36	Z36	X37	Y37	Z37	X38	Y38	Z38	X39	Y39	Z39	

122	0.605	-645.6688232421875	1416.411743164062	-529.0714111328125	-632.17822265625	1409.231689453125	-211.0306854248047	-739.1324462890625	963.9160766601562	-494.8040771484375	-695.8453369140625	951.35009765625	-191.8849182128906	-677.2210693359375	918.6842041015624	-486.037841796875	-1030.336547851562	126.0677719116211	-355.8512268066406	-637.5001220703125	906.876708984375	-225.4334716796875	-808.2863159179688	846.9569702148438	-481.7198181152344	-769.952392578125	841.5650634765625	-182.8197784423828	-804.1119384765625	1002.367492675781	-332.9496459960938	-692.2257080078125	603.791259765625	-502.4472961425781	-896.2193603515625	285.1098327636719	-453.5982971191406	-772.5684814453125	602.8963623046875	-492.2035827636719	-688.7448120117188	502.82666015625	-477.6577453613281	-901.01708984375	207.87939453125	-202.8464813232422	-840.991455078125	365.6995239257812	-475.3768310546875	-772.2041625976562	505.3202209472656	-467.1549987792969	-543.4174194335938	629.1838989257812	-188.5912475585938	-795.4607543945312	66.76089477539062	-389.6710510253906	-617.9744262695312	601.7390747070312	-180.6929473876953	-511.7582702636719	534.0372314453125	-208.2853240966797	-590.9285278320312	509.6098937988281	-201.0952911376953	-737.0353393554688	457.2736511230469	-471.61962890625	-555.2040405273438	492.1408996582031	-197.2745971679688	-775.8203125	322.8304138183594	-464.6871032714844	-830.6030883789062	241.3248748779297	-446.19921875	-625.0848388671875	407.503173828125	-204.3408050537109	-862.9076538085938	62.8080940246582	-444.8175964355469	-652.9102172851562	483.4852600097656	-197.2480163574219	-1023.316833496094	95.74679565429688	-328.749755859375	-720.7566528320312	372.4718627929688	-208.9534149169922	-745.3865356445312	448.240234375	-204.2386779785156	-963.0738525390624	127.060905456543	-414.1014709472656	-906.6423950195312	341.3306274414062	-225.9133605957031	-862.5556640625	155.0107879638672	-261.6953430175781	-949.8234252929688	391.0722351074219	-282.5466918945312	-967.6803588867188	369.8605651855469	-311.1622619628906	-972.3163452148438	382.4109802246094	-261.2825622558594	-1035.707275390625	93.97635650634766	-377.9169616699219
123	0.61	-627.855224609375	1420.775024414062	-528.0372314453125	-618.1873779296875	1413.372192382812	-210.3547210693359	-721.69970703125	967.5504760742188	-495.3446044921875	-679.7925415039062	955.7654418945312	-192.4779357910156	-660.6686401367188	921.69384765625	-486.3729248046875	-1026.937377929688	131.3661041259766	-357.0567932128906	-621.9860229492188	911.1068725585938	-225.8953704833984	-793.0573120117188	851.2277221679688	-481.1609497070312	-753.7046508789062	846.9141235351562	-181.9018402099609	-787.9390869140625	1005.880249023438	-334.2984008789062	-682.8103637695312	607.1397094726562	-501.4004516601562	-892.58544921875	289.8801879882812	-454.1251220703125	-763.617431640625	608.2108154296875	-492.3554077148438	-681.8784790039062	505.7948608398438	-477.2147827148438	-868.9414672851562	199.5442962646484	-203.7153930664062	-837.15869140625	370.2068176269531	-475.4049682617188	-765.2254028320312	510.4326782226562	-467.5134887695312	-525.4241943359375	636.0741577148438	-189.2931365966797	-794.4791870117188	66.67364501953125	-389.7733154296875	-599.210205078125	608.0220336914062	-180.8564453125	-492.2522888183594	541.3961181640625	-209.6823120117188	-570.7213745117188	515.3880615234375	-202.8860931396484	-731.415771484375	461.31884765625	-471.827880859375	-535.2691040039062	498.2999572753906	-198.6525573730469	-771.9844360351562	327.3415832519531	-465.3660278320312	-827.4716186523438	245.2803039550781	-446.6793518066406	-603.1650390625	410.4494323730469	-205.8338012695312	-862.0510864257812	63.58889770507812	-444.6512451171875	-633.6293334960938	485.6317443847656	-197.3129577636719	-1021.815307617188	101.6665191650391	-328.4067993164062	-696.9964599609375	371.5690612792969	-210.0457000732422	-724.823486328125	446.4693298339844	-204.7911224365234	-959.8933715820312	131.5501251220703	-414.946533203125	-881.2697143554688	332.4861145019531	-226.9204559326172	-826.971923828125	148.9977722167969	-262.2315673828125	-927.7935180664062	379.9984130859375	-282.8482971191406	-944.3505249023438	357.7511901855469	-311.6472473144531	-949.4826049804688	370.0234985351562	-262.1187744140625	-1033.333862304688	99.91866302490234	-379.0075378417969
124	0.615	-610.0299072265625	1425.579833984375	-526.8685913085938	-603.9501342773438	1417.60302734375	-209.6075592041016	-704.0422973632812	971.3194580078124	-495.6173706054688	-663.7559814453125	960.656494140625	-192.7043151855469	-644.4019775390625	924.4833374023438	-486.5621643066406	-1023.383361816406	136.5912475585938	-358.4800415039062	-606.3578491210938	915.5185546875	-225.8842315673828	-777.81884765625	855.602294921875	-481.3070068359375	-737.31982421875	852.0667114257812	-181.3255615234375	-771.9939575195312	1010.499816894531	-335.870361328125	-672.6044921875	611.0980834960938	-500.5598754882812	-888.5337524414062	295.4373474121094	-454.7033996582031	-753.6300048828125	613.5409545898438	-492.5716247558594	-674.6815185546875	509.3686828613281	-476.7469482421875	-835.814208984375	192.1533966064453	-204.2105712890625	-832.9078979492188	375.5661315917969	-475.7623596191406	-757.630859375	515.8310546875	-467.7608032226562	-507.65771484375	642.699462890625	-190.449951171875	-793.2361450195312	66.6729507446289	-389.9592590332031	-580.9502563476562	613.2662353515625	-181.3349914550781	-473.3771057128906	548.6513061523438	-210.8829193115234	-550.9033813476562	521.9451293945312	-202.8012847900391	-725.3280639648438	465.8780212402344	-472.1525268554688	-516.0059814453125	504.5128479003906	-200.0359802246094	-767.7260131835938	332.0072937011719	-466.3384399414062	-823.5426025390625	250.5548400878906	-447.9376831054688	-581.0390014648438	414.8989562988281	-205.3202056884766	-861.1387939453125	64.13972473144531	-444.6799926757812	-615.0101318359375	487.3447265625	-197.3677825927734	-1018.999450683594	106.6265258789062	-329.1718444824219	-673.51220703125	371.0448303222656	-211.3206939697266	-704.6904907226562	444.5008239746094	-205.2109832763672	-955.9862670898438	136.8363952636719	-416.1350402832031	-856.0064697265625	323.5845947265625	-227.2878875732422	-791.09619140625	143.8190612792969	-262.6362915039062	-905.7686767578124	368.5591735839844	-282.996826171875	-920.8831176757812	345.3488159179688	-312.1234741210938	-927.342041015625	357.1450500488281	-262.2449035644531	-1030.545288085938	105.0628433227539	-379.7341918945312
125	0.62	-592.5133666992188	1430.186889648438	-525.69921875	-589.5733642578125	1421.864501953125	-208.6529541015625	-686.0399780273438	975.29296875	-495.9805297851562	-647.7815551757812	965.40478515625	-192.9522552490234	-627.7915649414062	928.0006713867188	-486.4145202636719	-1019.812316894531	142.0724334716797	-359.545166015625	-590.4907836914062	920.3831787109376	-226.3643646240234	-762.2069702148438	860.1024780273438	-481.0801391601562	-720.76025390625	857.5977172851562	-180.4657287597656	-755.6100463867188	1014.722534179688	-336.8496704101562	-661.5704956054688	614.5535888671875	-500.30078125	-883.9595947265625	301.1659240722656	-455.3439331054688	-743.06787109375	619.2857666015625	-493.2092590332031	-666.5907592773438	512.9546508789062	-476.0844421386719	-802.3861694335938	184.7022247314453	-204.9021301269531	-827.6948852539062	381.1159362792969	-476.4429626464844	-749.6570434570312	521.9956665039062	-469.3631591796875	-489.9797668457031	649.1826171875	-191.0836334228516	-792.6469116210938	66.36402893066406	-389.9789123535156	-562.3380737304688	619.347900390625	-181.8656921386719	-454.8400573730469	555.70654296875	-212.3584899902344	-531.4933471679688	528.123046875	-203.2133483886719	-718.808837890625	470.6853942871094	-472.3648986816406	-496.6652221679688	510.945556640625	-200.7700958251953	-763.38330078125	337.2582397460938	-467.4541931152344	-819.3533325195312	256.0647583007812	-449.728271484375	-559.7581176757812	418.07470703125	-206.2765045166016	-859.8983764648438	64.6900634765625	-444.8623046875	-596.8489379882812	488.8663330078125	-197.552734375	-1016.58984375	113.1613693237305	-329.2306213378906	-649.9964599609375	370.4415893554688	-211.9027099609375	-684.4290161132812	441.8380737304688	-205.3702239990234	-952.23388671875	141.8002777099609	-417.2604064941406	-830.5858764648438	314.6200866699219	-228.3768920898438	-755.3667602539062	138.9965209960938	-263.2326354980469	-881.0418701171875	356.7140197753906	-282.1307067871094	-896.7015380859375	332.5222473144531	-313.1448364257812	-903.4878540039062	343.8204956054688	-263.0749816894531	-1027.771118164062	111.0178756713867	-380.5244750976562
